<svg id="Capa_1" data-name="Capa 1" xmlns="http://www.w3.org/2000/svg" viewBox="0 0 1114.86 558.33"><defs><style>.cls-1{fill:#144b51;}.cls-2{fill:#1cbdcf;}.cls-3{font-size:89.1px;fill:#5f6a70;font-family:CenturyGothic, Century Gothic;letter-spacing:0.27em;}.cls-4{fill:none;stroke:#5f6a70;stroke-miterlimit:10;stroke-width:10px;}</style></defs><title>PintoLogo</title><path class="cls-1" d="M82.85,254h69.93q56.75,0,81.83,10.48a83.27,83.27,0,0,1,39.56,33.91q14.47,23.43,14.48,56.16,0,36.26-19,60.28t-51.45,33.43q-19.06,5.43-69.46,5.42v146.7H82.85Zm65.93,135.4h21q24.72,0,34.38-3.55a30.58,30.58,0,0,0,15.18-11.69q5.53-8.15,5.54-19.73,0-20.08-15.54-29.3-11.31-6.84-41.92-6.85h-18.6Z" transform="translate(-82.85 -254)"/><path class="cls-1" d="M335.13,344.18h64.28v256.2H335.13Z" transform="translate(-82.85 -254)"/><path class="cls-1" d="M457.81,344.18h64.28v26.26Q544,352,561.71,344.8A95.83,95.83,0,0,1,598,337.59q38.09,0,64.66,26.61Q685,386.8,685,431.07V600.38H621.46V488.19q0-45.87-4.11-60.92T603,404.34q-10.23-7.87-25.25-7.88a47.35,47.35,0,0,0-33.48,13.05q-14,13.07-19.38,36.11-2.82,12-2.82,52V600.38H457.81Z" transform="translate(-82.85 -254)"/><path class="cls-1" d="M755,269.65h64.29v89.07H857.4v52.2H819.26V600.38H755V410.92H722v-52.2h33Z" transform="translate(-82.85 -254)"/><path class="cls-1" d="M1012.28,331q-50.14,0-88.77,34.85-44,40-44,100.07,0,56.06,39,95.25t94.07,39.21q37.44,0,68.52-17.78a130,130,0,0,0,49.1-49.33,134.52,134.52,0,0,0,18-67.82l-64.75.24q0,33-20.05,53.92t-50.24,21q-30.2,0-49.89-20.72t-19.69-54.16q0-32.49,19.93-53.33t49.88-20.84Z" transform="translate(-82.85 -254)"/><rect class="cls-2" x="1000.74" y="25.48" width="63.53" height="163.95"/><rect class="cls-2" x="1083.59" y="279.48" width="63.53" height="163.95" transform="translate(1393.96 -1007.9) rotate(90)"/><text class="cls-3" transform="translate(16.99 531.01)">MEDICAL CENTER</text><polyline class="cls-4" points="0.36 409.09 123.19 409.09 129.92 380.39 151.81 430.86 168.64 367.53 187.16 409.09 200.63 389.3 209.04 409.09 1114.86 409.09"/></svg>